<svg width="46" height="46" xmlns="http://www.w3.org/2000/svg" xmlns:xlink="http://www.w3.org/1999/xlink" xml:space="preserve" overflow="hidden"><g transform="translate(-770 -82)"><path d="M785.812 96.7583C785.812 99.1401 783.882 101.071 781.5 101.071 779.118 101.071 777.188 99.1401 777.188 96.7583 777.188 94.3766 779.118 92.4458 781.5 92.4458 783.882 92.4458 785.812 94.3766 785.812 96.7583Z" fill="#D1D1D1"/><path d="M808.812 96.7583C808.812 99.1401 806.882 101.071 804.5 101.071 802.118 101.071 800.188 99.1401 800.188 96.7583 800.188 94.3766 802.118 92.4458 804.5 92.4458 806.882 92.4458 808.812 94.3766 808.812 96.7583Z" fill="#D1D1D1"/><path d="M801.625 117.554 801.625 113.242C801.625 112.571 801.338 111.9 800.763 111.517 799.612 110.558 798.079 109.887 796.546 109.504 795.492 109.217 794.246 108.929 793 108.929 791.85 108.929 790.604 109.121 789.454 109.504 787.921 109.887 786.483 110.654 785.237 111.517 784.662 111.996 784.375 112.571 784.375 113.242L784.375 117.554 801.625 117.554Z" fill="#D1D1D1"/><path d="M797.312 103.467C797.312 105.848 795.382 107.779 793 107.779 790.618 107.779 788.688 105.848 788.688 103.467 788.688 101.085 790.618 99.1542 793 99.1542 795.382 99.1542 797.312 101.085 797.312 103.467Z" fill="#D1D1D1"/><path d="M812.263 104.808C811.112 103.85 809.579 103.179 808.046 102.796 806.992 102.508 805.746 102.221 804.5 102.221 803.35 102.221 802.104 102.412 800.954 102.796 800.379 102.988 799.804 103.179 799.229 103.467L799.229 103.562C799.229 105.192 798.558 106.725 797.504 107.779 799.325 108.354 800.763 109.121 801.912 109.983 802.2 110.271 802.487 110.463 802.679 110.846L813.125 110.846 813.125 106.533C813.125 105.863 812.838 105.192 812.263 104.808Z" fill="#D1D1D1"/><path d="M784.088 109.983 784.088 109.983C785.429 109.025 786.963 108.258 788.496 107.779 787.442 106.629 786.771 105.192 786.771 103.562 786.771 103.467 786.771 103.467 786.771 103.371 786.196 103.179 785.621 102.892 785.046 102.796 783.992 102.508 782.746 102.221 781.5 102.221 780.35 102.221 779.104 102.412 777.954 102.796 776.421 103.275 774.983 103.946 773.737 104.808 773.162 105.192 772.875 105.863 772.875 106.533L772.875 110.846 783.225 110.846C783.513 110.463 783.704 110.271 784.088 109.983Z" fill="#D1D1D1"/></g></svg>