<svg width="46" height="46" xmlns="http://www.w3.org/2000/svg" xmlns:xlink="http://www.w3.org/1999/xlink" xml:space="preserve" overflow="hidden"><g transform="translate(-285 -479)"><path d="M323.583 492.885 324.34 496.729 325.316 496.729 324.34 491.758 299.375 496.721C299.349 496.726 299.349 496.73 299.375 496.73L304.244 496.73Z" fill="#C2F1C8"/><path d="M317.897 487.676 319.341 491.286 320.299 491.094 318.431 486.422 293.246 496.721C293.233 496.726 293.234 496.73 293.246 496.73L295.753 496.73Z" fill="#C2F1C8"/><path d="M329.089 498.167 286.917 498.167 286.917 517.333 329.089 517.333ZM328.131 516.375 287.875 516.375 287.875 499.125 328.131 499.125Z" fill="#C2F1C8"/><path d="M308.003 512.062C309.909 512.062 311.453 510.132 311.453 507.75 311.453 505.368 309.908 503.438 308.003 503.438 306.098 503.438 304.553 505.368 304.553 507.75 304.553 510.132 306.097 512.062 308.003 512.062ZM308.003 504.396C309.377 504.396 310.495 505.9 310.495 507.75 310.495 509.6 309.377 511.104 308.003 511.104 306.629 511.104 305.511 509.6 305.511 507.75 305.511 505.9 306.629 504.396 308.003 504.396Z" fill="#C2F1C8"/><path d="M295.502 509.599C296.526 509.883 297.586 509.283 297.871 508.26 297.964 507.923 297.964 507.567 297.87 507.231 297.694 506.584 297.19 506.08 296.544 505.903 295.52 505.619 294.459 506.217 294.174 507.241 294.081 507.579 294.081 507.935 294.175 508.273 294.351 508.919 294.856 509.423 295.502 509.599ZM296.021 506.792C296.55 506.792 296.979 507.221 296.979 507.75 296.979 508.279 296.55 508.708 296.021 508.708 295.492 508.708 295.062 508.279 295.062 507.75 295.062 507.221 295.492 506.792 296.021 506.792Z" fill="#C2F1C8"/><path d="M320.375 509.629C321.284 509.417 321.92 508.597 321.901 507.664L321.901 507.664C321.913 507.031 321.583 506.441 321.038 506.119 320.129 505.551 318.932 505.826 318.363 506.735 318.173 507.039 318.07 507.39 318.067 507.749 318.067 508.809 318.927 509.668 319.988 509.668 320.118 509.668 320.247 509.655 320.375 509.629ZM319.984 506.792C320.513 506.792 320.942 507.221 320.942 507.75 320.942 508.279 320.513 508.708 319.984 508.708 319.455 508.708 319.026 508.279 319.026 507.75 319.026 507.221 319.455 506.792 319.984 506.792Z" fill="#C2F1C8"/><path d="M324.776 514.458 326.214 513.021 326.214 502.479 324.776 501.042 291.708 501.042 289.792 502.958 289.792 512.542 291.708 514.458ZM290.75 503.356 292.106 502 324.379 502 325.255 502.876 325.255 512.625 324.379 513.5 292.106 513.5 290.75 512.146Z" fill="#C2F1C8"/></g></svg>