<svg width="46" height="46" xmlns="http://www.w3.org/2000/svg" xmlns:xlink="http://www.w3.org/1999/xlink" xml:space="preserve" overflow="hidden"><g transform="translate(-142 -479)"><path d="M182.921 507.127 182.921 503.725C182.921 501.425 179.231 499.892 174.775 499.269L174.775 496.538C174.775 495.771 174.344 494.717 172.379 493.71L172.379 490.308C172.379 487.194 165.719 485.517 159.442 485.517 153.165 485.517 146.504 487.194 146.504 490.308L146.504 494.142C146.504 495.292 147.415 496.25 148.9 497.017L148.9 500.371C148.9 500.371 148.9 500.371 148.9 500.419 146.935 501.425 146.504 502.527 146.504 503.246L146.504 507.079C146.504 510.194 153.165 511.871 159.442 511.871L159.442 513.787C159.442 516.902 166.102 518.579 172.379 518.579 178.656 518.579 185.317 516.902 185.317 513.787L185.317 509.954C185.317 509.235 184.885 508.133 182.921 507.127ZM184.358 510.002C184.358 511.823 179.423 513.835 172.379 513.835 166.773 513.835 162.508 512.542 160.975 511.104 160.975 511.104 160.975 511.104 160.975 511.104 163.898 512.015 166.917 512.446 169.935 512.398 175.781 512.398 182.01 510.913 182.777 508.229 183.831 508.756 184.358 509.379 184.358 510.002ZM176.212 514.554 176.212 517.429C175.59 517.477 174.967 517.573 174.296 517.573L174.296 514.698C174.967 514.698 175.59 514.65 176.212 514.554ZM177.171 514.458C177.842 514.362 178.465 514.267 179.087 514.123L179.087 516.95C178.512 517.094 177.842 517.19 177.171 517.285L177.171 514.458ZM180.046 513.883C180.717 513.74 181.34 513.5 181.962 513.26L181.962 516.04C181.34 516.327 180.717 516.519 180.046 516.71L180.046 513.883ZM164.712 516.71C164.042 516.519 163.419 516.327 162.796 516.04L162.796 513.26C163.419 513.5 164.042 513.692 164.712 513.883L164.712 516.71ZM165.671 514.123C166.294 514.267 166.917 514.362 167.587 514.458L167.587 517.333C166.917 517.237 166.246 517.094 165.671 516.998L165.671 514.123ZM168.546 514.554C169.169 514.602 169.84 514.698 170.462 514.698L170.462 517.573C169.792 517.525 169.169 517.477 168.546 517.429L168.546 514.554ZM157.046 503.773 157.046 503.917C156.375 503.821 155.704 503.677 155.129 503.581L155.129 500.754C155.752 500.898 156.375 500.994 157.046 501.09L157.046 503.773ZM158.004 507.606 158.004 505.69C158.435 506.073 158.915 506.408 159.442 506.648L159.442 509.379C158.531 508.756 158.004 508.181 158.004 507.606L158.004 507.606ZM181.962 507.606C181.962 508.181 181.435 508.804 180.525 509.331L180.525 506.6C181.052 506.36 181.531 506.025 181.962 505.642L181.962 507.606ZM179.567 509.81C178.944 510.098 178.321 510.29 177.65 510.481L177.65 507.654C178.321 507.51 178.944 507.271 179.567 507.031L179.567 509.81ZM176.692 510.721C176.117 510.865 175.446 510.96 174.775 511.056L174.775 508.181C175.446 508.085 176.069 507.99 176.692 507.846L176.692 510.721ZM173.817 511.2C173.194 511.248 172.571 511.344 171.9 511.344L171.9 508.469C172.523 508.421 173.194 508.373 173.817 508.325L173.817 511.2ZM170.942 511.392C170.606 511.392 170.319 511.392 169.983 511.392 169.648 511.392 169.36 511.392 169.025 511.392L169.025 508.517C169.36 508.517 169.648 508.517 169.983 508.517 170.319 508.517 170.606 508.517 170.942 508.517L170.942 511.392ZM168.067 511.392C167.396 511.344 166.773 511.296 166.15 511.248L166.15 508.373C166.773 508.421 167.444 508.517 168.067 508.517L168.067 511.392ZM165.192 511.104C164.521 511.008 163.85 510.865 163.275 510.769L163.275 507.942C163.898 508.085 164.521 508.181 165.192 508.277L165.192 511.104ZM162.317 510.481C161.646 510.29 161.023 510.098 160.4 509.81L160.4 507.031C161.023 507.271 161.646 507.462 162.317 507.654L162.317 510.481ZM181.962 503.773C181.962 505.594 177.027 507.606 169.983 507.606 162.94 507.606 158.004 505.594 158.004 503.773 158.004 501.952 162.94 499.94 169.983 499.94 177.027 499.94 181.962 501.952 181.962 503.773ZM158.004 501.856 158.004 501.138C158.292 501.185 158.579 501.185 158.867 501.233 158.579 501.425 158.292 501.617 158.004 501.856ZM173.002 499.077C173.29 498.885 173.577 498.694 173.865 498.454L173.865 499.173C173.529 499.125 173.29 499.125 173.002 499.077ZM172.283 494.765C173.29 495.34 173.817 495.962 173.817 496.538 173.817 497.352 172.762 498.263 170.99 498.933 170.654 498.933 170.319 498.933 169.983 498.933 166.629 498.933 163.131 499.413 160.64 500.371 155.608 500.227 151.871 499.029 150.481 497.688 150.481 497.688 150.481 497.688 150.481 497.688 153.404 498.598 156.423 499.029 159.442 498.981 165.288 498.981 171.517 497.496 172.283 494.765ZM154.171 500.467 154.171 503.294C153.5 503.102 152.877 502.91 152.254 502.623L152.254 499.844C152.877 500.083 153.548 500.323 154.171 500.467ZM151.296 499.413 151.296 502.144C150.385 501.569 149.858 500.994 149.858 500.419L149.858 498.502C150.29 498.837 150.769 499.173 151.296 499.413ZM149.858 496.394 149.858 493.615C150.481 493.854 151.104 494.046 151.775 494.237L151.775 497.065C151.152 496.873 150.481 496.681 149.858 496.394ZM152.733 497.304 152.733 494.477C153.356 494.621 153.979 494.717 154.65 494.812L154.65 497.688C153.979 497.592 153.356 497.448 152.733 497.304ZM155.608 497.783 155.608 494.908C156.231 494.956 156.902 495.052 157.525 495.052L157.525 497.927C156.854 497.927 156.231 497.879 155.608 497.783ZM158.483 497.975 158.483 495.1C158.819 495.1 159.106 495.1 159.442 495.1 159.777 495.1 160.065 495.1 160.4 495.1L160.4 497.975C160.065 497.975 159.777 497.975 159.442 497.975 159.106 497.975 158.819 498.023 158.483 497.975ZM161.358 497.975 161.358 495.1C161.981 495.052 162.652 495.004 163.275 494.956L163.275 497.831C162.652 497.879 162.029 497.927 161.358 497.975ZM164.233 497.688 164.233 494.812C164.904 494.717 165.527 494.621 166.15 494.477L166.15 497.304C165.575 497.448 164.904 497.592 164.233 497.688ZM167.108 497.065 167.108 494.237C167.779 494.094 168.402 493.854 169.025 493.615L169.025 496.394C168.402 496.681 167.779 496.873 167.108 497.065ZM169.983 495.915 169.983 493.183C170.51 492.944 170.99 492.608 171.421 492.225L171.421 494.142C171.421 494.765 170.942 495.34 169.983 495.915ZM148.9 495.915C147.99 495.34 147.462 494.765 147.462 494.19L147.462 492.273C147.894 492.656 148.373 492.992 148.9 493.231L148.9 495.915ZM147.462 490.356C147.462 488.535 152.398 486.523 159.442 486.523 166.485 486.523 171.421 488.535 171.421 490.356 171.421 492.177 166.485 494.19 159.442 494.19 152.398 494.19 147.462 492.129 147.462 490.356ZM149.14 501.377C150.002 503.15 153.26 504.3 157.046 504.827L157.046 506.983C151.296 506.6 147.462 504.827 147.462 503.246 147.462 502.623 148.085 502 149.14 501.377ZM148.9 508.852C147.99 508.277 147.462 507.702 147.462 507.127L147.462 505.21C147.894 505.594 148.373 505.929 148.9 506.169L148.9 508.852ZM151.775 510.002C151.104 509.81 150.481 509.619 149.858 509.331L149.858 506.552C150.481 506.792 151.104 506.983 151.775 507.175L151.775 510.002ZM154.65 510.625C153.979 510.529 153.308 510.385 152.733 510.29L152.733 507.462C153.356 507.606 153.979 507.702 154.65 507.798L154.65 510.625ZM155.608 507.846C156.087 507.894 156.567 507.942 157.094 507.99 157.142 508.325 157.333 508.66 157.525 508.996L157.525 510.913C156.854 510.865 156.231 510.817 155.608 510.769L155.608 507.846ZM158.483 509.858C158.771 510.05 159.106 510.242 159.442 510.433L159.442 510.913C159.106 510.913 158.819 510.913 158.483 510.913L158.483 509.858ZM160.4 513.835 160.4 511.919C160.831 512.302 161.31 512.638 161.837 512.877L161.837 515.608C160.927 514.985 160.4 514.41 160.4 513.835L160.4 513.835ZM171.421 514.746C171.756 514.746 172.044 514.746 172.379 514.746 172.715 514.746 173.002 514.746 173.337 514.746L173.337 517.621C173.002 517.621 172.715 517.621 172.379 517.621 172.044 517.621 171.756 517.621 171.421 517.621L171.421 514.746ZM182.921 512.829C183.448 512.59 183.927 512.254 184.358 511.871L184.358 513.787C184.358 514.362 183.831 514.985 182.921 515.513L182.921 512.829Z" fill="#C2F1C8"/></g></svg>