<svg width="46" height="46" xmlns="http://www.w3.org/2000/svg" xmlns:xlink="http://www.w3.org/1999/xlink" xml:space="preserve" overflow="hidden"><g transform="translate(-344 -477)"><path d="M385.208 511.5C385.208 512.123 384.49 512.698 383.292 513.129L383.292 511.404C383.962 511.212 384.633 510.925 385.208 510.638L385.208 511.5ZM381.375 508.337 381.375 506.612C382.046 506.421 382.717 506.133 383.292 505.846L383.292 506.708C383.292 507.331 382.573 507.906 381.375 508.337ZM381.375 513.704C380.8 513.848 380.129 513.944 379.458 514.04L379.458 512.171C380.081 512.075 380.752 511.979 381.375 511.883L381.375 513.704ZM377.542 507.379C378.165 507.283 378.835 507.188 379.458 507.092L379.458 508.913C378.883 509.056 378.212 509.152 377.542 509.248L377.542 507.379ZM377.542 514.279C376.919 514.327 376.296 514.375 375.625 514.375L375.625 512.458C376.2 512.458 376.871 512.41 377.542 512.362L377.542 514.279ZM373.708 509.583 373.708 507.667C374.283 507.667 374.954 507.619 375.625 507.571L375.625 509.487C375.002 509.535 374.379 509.535 373.708 509.583ZM373.708 514.375C373.038 514.375 372.415 514.327 371.792 514.279L371.792 512.458C372.127 512.458 372.415 512.458 372.75 512.458 373.038 512.458 373.373 512.458 373.708 512.458L373.708 514.375ZM369.875 507.571C370.498 507.619 371.121 507.667 371.792 507.667L371.792 509.583C371.121 509.583 370.498 509.535 369.875 509.487L369.875 507.571ZM369.875 514.04C369.204 513.944 368.533 513.848 367.958 513.704L367.958 512.171C368.581 512.267 369.204 512.315 369.875 512.362L369.875 514.04ZM366.042 508.913 366.042 507.044C366.665 507.14 367.288 507.283 367.958 507.331L367.958 509.248C367.288 509.152 366.617 509.056 366.042 508.913ZM366.042 513.129C364.844 512.65 364.125 512.075 364.125 511.5L364.125 511.404C364.125 511.404 364.125 511.404 364.173 511.404 364.317 511.452 364.413 511.5 364.556 511.5 365.035 511.644 365.515 511.74 366.042 511.835L366.042 513.129ZM358.375 506.612C358.71 506.612 358.998 506.66 359.333 506.66L359.333 506.708C359.333 507.379 359.477 508.05 359.812 508.577 359.333 508.577 358.854 508.529 358.375 508.481L358.375 506.612ZM356.458 500.862C357.081 500.958 357.704 501.102 358.375 501.15L358.375 503.067C357.704 502.971 357.033 502.875 356.458 502.731L356.458 500.862ZM356.458 508.29C355.788 508.194 355.117 508.098 354.542 507.954L354.542 506.085C355.165 506.181 355.788 506.325 356.458 506.373L356.458 508.29ZM352.625 500.479 352.625 499.617C353.2 499.904 353.823 500.144 354.542 500.335L354.542 502.108C353.344 501.677 352.625 501.102 352.625 500.479ZM352.625 507.379C351.427 506.9 350.708 506.325 350.708 505.75L350.708 504.888C351.283 505.175 351.906 505.415 352.625 505.606L352.625 507.379ZM350.708 492.429C351.283 492.717 351.906 492.956 352.625 493.148L352.625 494.921C351.427 494.442 350.708 493.867 350.708 493.292L350.708 492.429ZM356.458 493.962 356.458 495.879C355.788 495.783 355.117 495.688 354.542 495.544L354.542 493.675C355.165 493.771 355.788 493.867 356.458 493.962ZM361.25 485.625C367.096 485.625 371.792 486.919 371.792 488.5 371.792 490.081 367.096 491.375 361.25 491.375 355.404 491.375 350.708 490.081 350.708 488.5 350.708 486.919 355.404 485.625 361.25 485.625ZM364.125 508.337C362.927 507.858 362.208 507.283 362.208 506.708L362.208 505.846C362.783 506.133 363.406 506.373 364.125 506.565L364.125 508.337ZM369.875 494.921 369.875 493.196C370.546 493.004 371.217 492.717 371.792 492.429L371.792 493.292C371.792 493.915 371.073 494.49 369.875 494.921ZM366.042 495.831 366.042 493.962C366.665 493.867 367.335 493.771 367.958 493.675L367.958 495.496C367.383 495.64 366.712 495.735 366.042 495.831ZM362.208 496.167 362.208 494.25C362.783 494.25 363.454 494.202 364.125 494.154L364.125 496.071C363.502 496.119 362.879 496.119 362.208 496.167ZM358.375 496.071 358.375 494.154C358.998 494.202 359.621 494.25 360.292 494.25L360.292 496.167C359.621 496.119 358.998 496.119 358.375 496.071ZM383.292 501.917C383.292 503.498 378.596 504.792 372.75 504.792 366.904 504.792 362.208 503.498 362.208 501.917 362.208 500.335 366.904 499.042 372.75 499.042 378.596 499.042 383.292 500.335 383.292 501.917ZM386.167 503.354 386.167 501.917C386.167 499.665 384.394 498.035 380.944 497.125 379.65 496.79 378.165 496.502 376.487 496.358 376.535 496.167 376.535 495.927 376.535 495.688 376.535 494.346 375.913 493.196 374.619 492.333L374.619 488.5C374.619 486.248 372.846 484.619 369.396 483.708 367.144 483.085 364.269 482.75 361.202 482.75 357.177 482.75 347.785 483.325 347.785 488.5L347.785 493.292C347.785 494.633 348.408 495.783 349.702 496.646L349.702 497.556C348.552 498.371 347.785 499.473 347.785 500.958L347.785 505.75C347.785 508.002 349.558 509.631 353.008 510.542 355.26 511.165 358.135 511.5 361.202 511.5 361.202 513.752 362.975 515.381 366.425 516.292 368.677 516.915 371.552 517.25 374.619 517.25 378.644 517.25 388.035 516.675 388.035 511.5L388.035 506.708C388.083 505.367 387.46 504.217 386.167 503.354Z" fill="#CAEEFB"/></g></svg>