<svg width="46" height="46" xmlns="http://www.w3.org/2000/svg" xmlns:xlink="http://www.w3.org/1999/xlink" xml:space="preserve" overflow="hidden"><g transform="translate(-466 -476)"><path d="M507.208 510.021 505.771 511.458 472.708 511.458 470.792 509.542 470.792 499.958 472.708 498.042 505.771 498.042 507.208 499.479 507.208 510.021ZM467.917 495.167 467.917 514.333 510.083 514.333 510.083 495.167 467.917 495.167Z" fill="#C2F1C8"/><path d="M492.833 504.75C492.833 507.396 491.117 509.542 489 509.542 486.883 509.542 485.167 507.396 485.167 504.75 485.167 502.104 486.883 499.958 489 499.958 491.117 499.958 492.833 502.104 492.833 504.75Z" fill="#C2F1C8"/><path d="M478.458 504.75C478.458 505.544 477.815 506.188 477.021 506.188 476.227 506.188 475.583 505.544 475.583 504.75 475.583 503.956 476.227 503.312 477.021 503.312 477.815 503.312 478.458 503.956 478.458 504.75Z" fill="#C2F1C8"/><path d="M502.417 504.75C502.417 505.544 501.773 506.188 500.979 506.188 500.185 506.188 499.542 505.544 499.542 504.75 499.542 503.956 500.185 503.312 500.979 503.312 501.773 503.312 502.417 503.956 502.417 504.75Z" fill="#C2F1C8"/><path d="M497.577 485.919 498.296 487.74 501.171 487.165 499.158 482.133 473.379 492.675 488.138 489.752Z" fill="#C2F1C8"/><path d="M495.085 493.25 502.656 491.765 502.992 493.25 505.915 493.25 504.956 488.362 480.375 493.25Z" fill="#C2F1C8"/></g></svg>