<svg width="46" height="46" xmlns="http://www.w3.org/2000/svg" xmlns:xlink="http://www.w3.org/1999/xlink" xml:space="preserve" overflow="hidden"><g transform="translate(-666 -264)"><path d="M680.854 278.854 675.583 278.854 675.583 275.5 680.854 275.5 680.854 278.854ZM688.042 275.5 688.042 278.854 682.771 278.854 682.771 275.5 688.042 275.5ZM695.229 275.5 695.229 278.854 689.958 278.854 689.958 275.5 695.229 275.5ZM702.417 275.5 702.417 278.854 697.146 278.854 697.146 275.5 702.417 275.5ZM702.417 284.125 697.146 284.125 697.146 280.771 702.417 280.771 702.417 284.125ZM702.417 288.198 697.146 288.677 697.146 286.042 702.417 286.042 702.417 288.198ZM680.854 286.042 680.854 290.115 675.583 290.594 675.583 286.042 680.854 286.042ZM680.854 284.125 675.583 284.125 675.583 280.771 680.854 280.771 680.854 284.125ZM688.042 284.125 682.771 284.125 682.771 280.771 688.042 280.771 688.042 284.125ZM689.958 284.125 689.958 280.771 695.229 280.771 695.229 284.125 689.958 284.125ZM688.042 289.492 682.771 289.971 682.771 286.042 688.042 286.042 688.042 289.492ZM689.958 286.042 695.229 286.042 695.229 288.821 689.958 289.3 689.958 286.042ZM705.292 290.833 705.292 272.625 675.583 272.625 675.583 272.146C675.583 269.75 673.667 267.833 671.271 267.833 670.456 267.833 669.833 268.456 669.833 269.271 669.833 270.085 670.456 270.708 671.271 270.708 672.085 270.708 672.708 271.331 672.708 272.146L672.708 296.104C672.708 298.5 674.625 300.417 677.021 300.417L678.458 300.417 699.542 300.417 703.854 300.417C704.669 300.417 705.292 299.794 705.292 298.979 705.292 298.165 704.669 297.542 703.854 297.542L677.021 297.542C676.206 297.542 675.583 296.919 675.583 296.104L675.583 293.469 705.292 290.833Z" fill="#D1D1D1"/><path d="M681.333 303.292C681.333 304.879 680.046 306.167 678.458 306.167 676.87 306.167 675.583 304.879 675.583 303.292 675.583 301.704 676.87 300.417 678.458 300.417 680.046 300.417 681.333 301.704 681.333 303.292Z" fill="#D1D1D1"/><path d="M702.417 303.292C702.417 304.879 701.129 306.167 699.542 306.167 697.954 306.167 696.667 304.879 696.667 303.292 696.667 301.704 697.954 300.417 699.542 300.417 701.129 300.417 702.417 301.704 702.417 303.292Z" fill="#D1D1D1"/></g></svg>