<svg width="46" height="46" xmlns="http://www.w3.org/2000/svg" xmlns:xlink="http://www.w3.org/1999/xlink" xml:space="preserve" overflow="hidden"><g transform="translate(-1088 -274)"><path d="M1127.29 300.312 1127.29 284.062 1096.62 284.062 1096.62 282.098C1096.62 280.008 1094.93 278.315 1092.84 278.312L1092.79 278.312C1092.53 278.312 1092.31 278.527 1092.31 278.792 1092.31 279.056 1092.53 279.271 1092.79 279.271L1092.84 279.271C1094.4 279.272 1095.67 280.537 1095.67 282.098L1095.67 306.104C1095.67 307.878 1097.05 309.343 1098.82 309.448 1097.36 310.352 1096.9 312.271 1097.81 313.735 1098.71 315.198 1100.63 315.652 1102.09 314.749 1103.56 313.845 1104.01 311.926 1103.11 310.463 1102.86 310.056 1102.52 309.712 1102.11 309.458L1119.89 309.458C1118.43 310.371 1117.99 312.293 1118.9 313.751 1119.81 315.209 1121.74 315.651 1123.19 314.738 1124.65 313.825 1125.09 311.903 1124.18 310.445 1123.93 310.046 1123.59 309.708 1123.19 309.458L1126.81 309.458C1127.08 309.458 1127.29 309.244 1127.29 308.979 1127.29 308.715 1127.08 308.5 1126.81 308.5L1099.02 308.5C1097.7 308.498 1096.63 307.427 1096.62 306.104L1096.62 303.187ZM1121.54 314.25C1120.35 314.25 1119.39 313.285 1119.39 312.094 1119.39 310.903 1120.35 309.938 1121.54 309.938 1122.73 309.938 1123.7 310.903 1123.7 312.094 1123.7 313.284 1122.73 314.249 1121.54 314.25ZM1100.46 314.25C1099.27 314.25 1098.3 313.285 1098.3 312.094 1098.3 310.903 1099.27 309.938 1100.46 309.938 1101.65 309.938 1102.61 310.903 1102.61 312.094 1102.61 313.284 1101.65 314.249 1100.46 314.25ZM1096.62 290.771 1103.33 290.771 1103.33 295.562 1096.62 295.562ZM1118.67 295.562 1111.96 295.562 1111.96 290.771 1118.67 290.771ZM1119.62 290.771 1126.33 290.771 1126.33 295.562 1119.62 295.562ZM1111.96 296.521 1118.67 296.521 1118.67 300.157 1111.96 300.785ZM1111 300.876 1104.29 301.504 1104.29 296.521 1111 296.521ZM1111.96 289.812 1111.96 285.021 1118.67 285.021 1118.67 289.812ZM1111 289.812 1104.29 289.812 1104.29 285.021 1111 285.021ZM1111 290.771 1111 295.562 1104.29 295.562 1104.29 290.771ZM1096.62 296.521 1103.33 296.521 1103.33 301.595 1096.62 302.223ZM1119.62 300.067 1119.62 296.521 1126.33 296.521 1126.33 299.438ZM1126.33 289.812 1119.62 289.812 1119.62 285.021 1126.33 285.021ZM1103.33 285.021 1103.33 289.812 1096.62 289.812 1096.62 285.021Z" fill="#CAEEFB"/></g></svg>