<svg width="47" height="46" xmlns="http://www.w3.org/2000/svg" xmlns:xlink="http://www.w3.org/1999/xlink" xml:space="preserve" overflow="hidden"><g transform="translate(-153 -178)"><path d="M25.1562 28.0312C26.0667 28.0312 26.7854 27.3125 26.7854 26.4021 26.7854 25.4917 26.0667 24.7729 25.1562 24.7729 24.2458 24.7729 23.5271 25.4917 23.5271 26.4021 23.5271 26.4021 23.5271 26.4021 23.5271 26.4021 23.5271 27.3125 24.2458 28.0312 25.1562 28.0312 25.1562 28.0312 25.1562 28.0312 25.1562 28.0312ZM25.1562 25.7792C25.5396 25.7792 25.8271 26.0667 25.8271 26.45 25.8271 26.8333 25.5396 27.1208 25.1562 27.1208 24.7729 27.1208 24.4854 26.8333 24.4854 26.45 24.4854 26.45 24.4854 26.45 24.4854 26.45 24.4854 26.0667 24.7729 25.7792 25.1562 25.7792Z" fill="#FBE3D6" transform="matrix(1.02174 0 0 1 153 178)"/><path d="M22.2333 29.8042C22.2812 29.8521 22.3771 29.8521 22.425 29.8521L23.3833 29.8521C23.6229 29.8521 23.8146 29.6604 23.7667 29.4208 23.7667 29.3729 23.7667 29.2771 23.7188 29.2292L23.2396 28.4146C23.1437 28.2708 23.0479 28.2229 22.9042 28.2229 22.8083 28.2229 22.7604 28.2229 22.7125 28.2708 22.6646 28.3187 22.6167 28.3667 22.5687 28.4146L22.0896 29.2292C21.9937 29.4208 22.0417 29.6604 22.2333 29.8042 22.2333 29.8042 22.2333 29.8042 22.2333 29.8042Z" fill="#FBE3D6" transform="matrix(1.02174 0 0 1 153 178)"/><path d="M13.1292 34.0687C13.1292 35.1708 13.9917 36.0333 15.0938 36.0333 16.1 36.0333 16.9146 35.3146 17.0583 34.3083L19.9813 33.2062 19.9813 33.6375 25.9229 33.6375 25.9229 33.5417 28.5104 34.6917C28.6542 35.7937 29.6125 36.5604 30.6667 36.4167 31.6729 36.3208 32.4396 35.4583 32.3917 34.4042 33.1583 33.6375 33.1583 32.3917 32.3917 31.625 31.7208 30.9542 30.6187 30.8583 29.8521 31.4333L27.4083 30.3792 27.4083 30.3792 27.8396 30.2354 29.9479 29.4208C30.1396 29.5646 30.3312 29.6604 30.5229 29.7562 30.7625 29.8042 30.9542 29.8521 31.1937 29.9 32.2958 29.9 33.1583 29.0375 33.1583 27.9354 33.1583 27.4083 32.9187 26.8812 32.5354 26.4979L32.5354 26.4979C32.5354 25.3958 31.6729 24.5333 30.5708 24.5333 29.9 24.5333 29.2771 24.8687 28.8937 25.4917 28.8937 25.3479 28.8937 25.1562 28.8937 25.0125 28.8937 21.4188 26.2104 18.4958 22.9042 18.4958 19.5979 18.4958 16.9625 21.3229 16.9625 24.9167 16.9625 24.9646 16.9625 24.9646 16.9625 25.0125 16.9625 25.0604 16.9625 25.1083 16.9625 25.1083 16.9625 25.1083 16.9146 25.0125 16.9146 25.0125 16.3396 24.1021 15.1417 23.8146 14.2312 24.3896 13.6562 24.7729 13.3208 25.3958 13.3208 26.0667L13.3208 26.0667C12.5542 26.8333 12.5542 28.0792 13.3208 28.8458 14.0396 29.5646 15.1417 29.6125 15.9083 29.0375L18.0167 29.9958 18.2562 30.0917 15.6687 31.0979C14.8062 30.475 13.5604 30.6667 12.9375 31.5292 12.3146 32.3438 12.4104 33.3979 13.1292 34.0687L13.1292 34.0687ZM30.1396 32.5833C30.3792 32.1042 31.0021 31.8646 31.4812 32.1042 31.9604 32.3438 32.2 32.9667 31.9604 33.4458 31.9125 33.5417 31.8167 33.6375 31.7688 33.7333 31.6729 33.8292 31.5292 33.925 31.3854 33.9729 31.625 34.4521 31.4812 35.075 30.9542 35.3146 30.475 35.5542 29.8521 35.4104 29.6125 34.8833 29.4688 34.6437 29.4688 34.3083 29.5646 34.0208L25.9708 32.3917 25.9708 31.3375 26.0667 31.3375C26.3542 31.3375 26.6896 31.2417 26.9292 31.05L30.1396 32.5833ZM29.6604 26.7375C29.6125 26.6417 29.6125 26.5458 29.6125 26.4021 29.6125 25.8271 30.0437 25.3958 30.6187 25.3958 31.1458 25.3958 31.625 25.875 31.625 26.4021L31.625 26.4021C31.625 26.5458 31.5771 26.7375 31.5292 26.8812 32.0563 27.025 32.3917 27.6 32.2 28.1271 32.0563 28.5583 31.6729 28.8458 31.2417 28.8458L31.2417 28.8458C30.8583 28.8458 30.475 28.6062 30.2833 28.2229L27.5521 29.2771 27.5521 28.75C27.9354 28.2708 28.2708 27.7437 28.5104 27.1687L29.6604 26.7375ZM22.9521 19.3583C25.7313 19.3583 27.9833 21.85 27.9833 24.9167 27.9833 26.1625 27.5521 27.3604 26.6896 28.2708 26.5938 28.3667 26.5458 28.5104 26.5458 28.6542L26.5458 29.8521C26.5458 30.1875 26.3062 30.4271 25.9708 30.475 25.9708 30.475 25.9708 30.475 25.9708 30.475L25.5396 30.475C25.2042 30.475 24.9646 30.7146 24.9167 31.05L24.9167 32.6792 24.1021 32.6792 24.1021 31.4812 23.2875 31.4812 23.2875 32.6792 22.5208 32.6792 22.5208 31.4812 21.7062 31.4812 21.7062 32.6792 20.8917 32.6792 20.8917 31.05C20.8917 30.7146 20.6042 30.4271 20.2687 30.4271L19.8375 30.4271C19.5021 30.4271 19.2625 30.1875 19.2625 29.8521L19.2625 28.6062C19.2625 28.4625 19.2146 28.3187 19.1187 28.2229 18.3042 27.3125 17.825 26.1146 17.825 24.8687 17.9208 21.85 20.1729 19.3583 22.9521 19.3583L22.9521 19.3583ZM15.5729 27.8396C15.525 27.9354 15.4292 28.0792 15.3333 28.175 14.95 28.5583 14.2792 28.5583 13.8958 28.175 13.5125 27.7917 13.5125 27.1208 13.8958 26.7375L13.8958 26.7375 13.8958 26.7854C13.9917 26.6896 14.1354 26.5938 14.2792 26.5458 13.9917 26.0667 14.1833 25.4437 14.6625 25.2042 15.1417 24.9167 15.7646 25.1083 16.0042 25.5875 16.1479 25.8271 16.1479 26.1146 16.1 26.4021L17.2021 26.8812C17.4417 27.6 17.825 28.2229 18.3042 28.7979L18.3042 29.1333 15.5729 27.8396ZM13.5125 32.3917C13.6562 31.8646 14.2312 31.5771 14.7583 31.7208 14.9979 31.8167 15.2375 31.9604 15.3333 32.2L18.7354 30.9062C19.0229 31.1937 19.4542 31.3854 19.8854 31.3854L19.9333 31.3854 19.9333 32.2 15.9562 33.7333C16.0042 33.8771 16.0521 33.9729 16.0521 34.1167 16.0521 34.6917 15.6208 35.1229 15.0458 35.1229 14.4708 35.1229 14.0396 34.6917 14.0396 34.1167 14.0396 33.9729 14.0875 33.7812 14.1354 33.6854 13.6562 33.4938 13.3687 32.9187 13.5125 32.3917 13.5125 32.3917 13.5125 32.3917 13.5125 32.3917Z" fill="#FBE3D6" transform="matrix(1.02174 0 0 1 153 178)"/><path d="M41.6875 41.2083C42.7417 41.2083 43.6042 40.3458 43.6042 39.2917 43.6042 38.9562 43.5083 38.6208 43.3646 38.3333L24.6292 5.75C24.1021 4.83958 22.9521 4.50417 21.9937 5.03125 21.7062 5.22292 21.4667 5.4625 21.275 5.75L2.5875 38.3333C2.06042 39.2438 2.39583 40.4417 3.30625 40.9688 3.59375 41.1604 3.92917 41.2083 4.26458 41.2083L41.6875 41.2083ZM22.1375 6.22917C22.2333 6.08542 22.3292 5.94167 22.4729 5.89375 22.6167 5.79792 22.7604 5.75 22.9521 5.75 23.2875 5.75 23.6229 5.94167 23.7667 6.22917L42.5021 38.8125C42.7896 39.2917 42.5979 39.8667 42.1667 40.1062 42.0229 40.2021 41.8792 40.25 41.6875 40.25L4.26458 40.25C3.7375 40.25 3.30625 39.8187 3.30625 39.2917 3.30625 39.1479 3.35417 38.9562 3.45 38.8125L22.1375 6.22917Z" fill="#FBE3D6" transform="matrix(1.02174 0 0 1 153 178)"/><path d="M20.7 28.0312C21.6104 28.0312 22.3292 27.3125 22.3292 26.4021 22.3292 25.4917 21.6104 24.7729 20.7 24.7729 19.7896 24.7729 19.0708 25.4917 19.0708 26.4021 19.0708 26.4021 19.0708 26.4021 19.0708 26.4021 19.1187 27.3125 19.8375 28.0312 20.7 28.0312 20.7 28.0312 20.7 28.0312 20.7 28.0312ZM20.7 25.7792C21.0833 25.7792 21.3708 26.0667 21.3708 26.45 21.3708 26.8333 21.0833 27.1208 20.7 27.1208 20.3167 27.1208 20.0292 26.8333 20.0292 26.45 20.0292 26.45 20.0292 26.45 20.0292 26.45 20.0771 26.0667 20.3646 25.7792 20.7 25.7792Z" fill="#FBE3D6" transform="matrix(1.02174 0 0 1 153 178)"/></g></svg>